<?xml version="1.0" encoding="UTF-8" standalone="no"?>
<!-- Created with Inkscape (http://www.inkscape.org/) -->

<svg
   xmlns:dc="http://purl.org/dc/elements/1.1/"
   xmlns:cc="http://creativecommons.org/ns#"
   xmlns:rdf="http://www.w3.org/1999/02/22-rdf-syntax-ns#"
   xmlns:svg="http://www.w3.org/2000/svg"
   xmlns="http://www.w3.org/2000/svg"
   xmlns:xlink="http://www.w3.org/1999/xlink"
   xmlns:sodipodi="http://sodipodi.sourceforge.net/DTD/sodipodi-0.dtd"
   xmlns:inkscape="http://www.inkscape.org/namespaces/inkscape"
   width="437.5"
   height="255.0625"
   id="svg2"
   version="1.1"
   inkscape:version="0.48.2 r9819"
   sodipodi:docname="install.svg">
  <defs
     id="defs4">
    <filter
       inkscape:collect="always"
       id="filter3872"
       color-interpolation-filters="sRGB">
      <feGaussianBlur
         inkscape:collect="always"
         stdDeviation="0.51931015"
         id="feGaussianBlur3874" />
    </filter>
  </defs>
  <sodipodi:namedview
     id="base"
     pagecolor="#ffffff"
     bordercolor="#666666"
     borderopacity="1.0"
     inkscape:pageopacity="0.0"
     inkscape:pageshadow="2"
     inkscape:zoom="1.4189974"
     inkscape:cx="108.9988"
     inkscape:cy="33.86649"
     inkscape:document-units="px"
     inkscape:current-layer="layer2"
     showgrid="false"
     inkscape:window-width="1613"
     inkscape:window-height="910"
     inkscape:window-x="0"
     inkscape:window-y="0"
     inkscape:window-maximized="0"
     fit-margin-top="0"
     fit-margin-left="0"
     fit-margin-right="0"
     fit-margin-bottom="0" />
  <metadata
     id="metadata7">
    <rdf:RDF>
      <cc:Work
         rdf:about="">
        <dc:format>image/svg+xml</dc:format>
        <dc:type
           rdf:resource="http://purl.org/dc/dcmitype/StillImage" />
        <dc:title></dc:title>
      </cc:Work>
    </rdf:RDF>
  </metadata>
  <g
     inkscape:label="Layer 1"
     inkscape:groupmode="layer"
     id="layer1"
     style="opacity:0.43103446;display:inline"
     transform="translate(-56.09375,-113.84375)">
    <image
       y="90.219315"
       x="54.999989"
       id="image3082"
       xlink:href="file:///Users/pascal/devel/gpOSX/images/ramanujan.jpg"
       height="570"
       width="450" />
  </g>
  <g
     inkscape:groupmode="layer"
     id="layer2"
     inkscape:label="logo"
     style="display:inline"
     transform="translate(-56.09375,-113.84375)">
    <g
       id="g3219"
       transform="matrix(1.6282051,0,0,1.6282051,47.485565,171.17331)">
      <g
         id="g4037"
         style="opacity:0.48155176"
         transform="translate(0,-35.058578)">
        <path
           style="fill:none;stroke:#ffffff;stroke-width:0.70359999;stroke-miterlimit:10"
           inkscape:connector-curvature="0"
           id="Cartouche"
           stroke-miterlimit="10"
           d="m 283.816,150.588 c 0,3.131 -2.538,5.669 -5.67,5.669 H 6.021 c -3.131,0 -5.669,-2.538 -5.669,-5.669 V 6.021 C 0.352,2.89 2.89,0.352 6.021,0.352 h 272.126 c 3.132,0 5.67,2.538 5.67,5.669 v 144.567 z" />
        <g
           id="logo">
          <g
             id="Base_Rouge">
            <path
               style="fill:#cd2e32"
               inkscape:connector-curvature="0"
               d="m 221.76,39.086 v 10.528 l 11.212,2.354 V 41.347 c 0,-1.494 -0.133,-2.798 -0.404,-3.946 -0.279,-1.14 -0.667,-2.118 -1.166,-2.95 -0.501,-0.835 -1.107,-1.515 -1.808,-2.014 -0.707,-0.516 -1.485,-0.863 -2.337,-1.071 -1.79,-0.425 -3.156,-0.01 -4.084,1.279 -0.944,1.286 -1.413,3.428 -1.413,6.441 z"
               id="path3175" />
            <path
               style="fill:#cd2e32"
               inkscape:connector-curvature="0"
               d="m 257.216,28.551 -28.424,-6.792 c 0.896,0.392 1.775,0.893 2.626,1.54 1.355,1.03 2.554,2.39 3.603,4.08 1.036,1.667 1.857,3.675 2.469,6 0.612,2.319 0.916,4.968 0.916,7.96 v 11.77 l 11.565,2.43 v 9.752 L 215.993,58.662 V 36.643 c 0,-3.141 0.277,-5.789 0.827,-7.947 0.549,-2.158 1.313,-3.873 2.312,-5.124 0.984,-1.26 2.16,-2.075 3.524,-2.455 0.757,-0.209 1.562,-0.286 2.403,-0.25 l -18.05,-4.313 v 104.704 l 23.995,2.963 c -1.788,-0.384 -3.46,-0.994 -4.999,-1.861 -2.195,-1.237 -4.074,-2.975 -5.639,-5.196 -1.557,-2.243 -2.774,-4.982 -3.621,-8.214 -0.856,-3.255 -1.279,-6.999 -1.279,-11.246 0,-3.089 0.216,-5.807 0.658,-8.136 0.436,-2.341 1.057,-4.338 1.867,-6.002 0.808,-1.668 1.776,-3.01 2.91,-4.024 1.124,-1.023 2.381,-1.775 3.769,-2.247 l 2.023,9.652 c -0.729,0.305 -1.41,0.741 -2.064,1.33 -0.651,0.59 -1.223,1.36 -1.712,2.303 -0.486,0.95 -0.881,2.069 -1.171,3.38 -0.287,1.3 -0.435,2.812 -0.435,4.546 0,2.522 0.289,4.756 0.856,6.663 0.575,1.91 1.388,3.528 2.449,4.846 1.053,1.321 2.316,2.348 3.773,3.083 1.462,0.745 3.083,1.213 4.871,1.421 1.763,0.201 3.372,0.101 4.834,-0.295 1.45,-0.409 2.695,-1.144 3.732,-2.185 1.033,-1.043 1.831,-2.416 2.41,-4.121 0.573,-1.71 0.857,-3.769 0.857,-6.182 0,-1.429 -0.077,-2.791 -0.23,-4.133 -0.154,-1.335 -0.36,-2.579 -0.612,-3.737 -0.265,-1.164 -0.552,-2.219 -0.896,-3.172 -0.335,-0.953 -0.675,-1.743 -1.039,-2.385 l -4.601,-0.725 V 99.17 l -5.23,-0.728 v -20.85 l 12.283,2.104 c 0.762,1.196 1.484,2.604 2.171,4.224 0.682,1.622 1.284,3.407 1.798,5.362 0.508,1.952 0.923,4.067 1.23,6.327 0.303,2.26 0.455,4.631 0.455,7.117 0,4.115 -0.414,7.61 -1.253,10.484 -0.836,2.881 -1.999,5.203 -3.507,6.968 -1.506,1.768 -3.314,3.006 -5.412,3.713 -1.762,0.601 -3.68,0.839 -5.736,0.767 l 22.698,2.805 V 28.551 z"
               id="path3177" />
          </g>
          <g
             id="Base_noir_90_x25_">
            <path
               style="fill:#3d3732"
               inkscape:connector-curvature="0"
               d="m 61.777,80.259 c 0,3.525 -0.326,6.996 -0.985,10.393 -0.649,3.401 -1.645,6.49 -2.981,9.257 -1.331,2.711 -3.012,5.02 -5.032,6.83 -2.005,1.771 -4.36,2.915 -7.056,3.349 l -10.368,1.685 v 27.381 l -8.403,0.902 V 63.607 l 18.407,-4.913 c 2.733,-0.741 5.127,-0.773 7.171,-0.104 2.06,0.728 3.78,2.046 5.151,3.956 1.382,1.896 2.41,4.41 3.082,7.374 0.675,3.037 1.014,6.494 1.014,10.339 z m -9.402,2.304 c 0,-4.16 -0.678,-7.076 -2.03,-8.965 -1.341,-1.854 -3.342,-2.412 -5.981,-1.74 l -9.009,2.139 v 25.242 l 9.251,-1.775 c 1.326,-0.226 2.474,-0.756 3.441,-1.612 0.967,-0.835 1.776,-1.861 2.423,-3.165 0.648,-1.303 1.13,-2.87 1.436,-4.545 0.315,-1.712 0.469,-3.588 0.469,-5.579 z"
               id="path3180" />
            <path
               style="fill:#3d3732"
               inkscape:connector-curvature="0"
               d="m 158.574,84.896 c 2.051,-1.108 3.957,-2.634 5.723,-4.534 1.771,-1.956 3.313,-4.223 4.617,-6.885 1.313,-2.631 2.341,-5.571 3.088,-8.833 0.748,-3.266 1.126,-6.743 1.126,-10.484 0,-4.59 -0.521,-8.598 -1.555,-12.009 -1.029,-3.408 -2.587,-6.119 -4.658,-8.168 -2.059,-2.007 -4.608,-3.305 -7.63,-3.865 -2.996,-0.573 -6.459,-0.331 -10.378,0.727 l -29.602,7.968 v 91.357 l 12.042,-1.313 V 93.439 l 14.784,-2.511 14.692,34.752 15.676,-1.675 -17.925,-39.109 z m -2.116,-15.621 c -0.921,1.491 -2.096,2.708 -3.519,3.72 -1.419,0.999 -3.1,1.654 -5.045,2.056 l -16.547,3.221 V 50.731 l 16.193,-3.924 c 3.69,-0.919 6.564,-0.451 8.598,1.355 2.049,1.834 3.077,5.137 3.077,9.904 0,2.174 -0.228,4.199 -0.687,6.098 -0.455,1.912 -1.148,3.61 -2.07,5.111 z"
               id="path3182" />
            <g
               id="g3184">
              <polygon
                 style="fill:#3d3732"
                 points="202.128,33.813 202.128,16.554 187.001,20.614 187.001,37.436 "
                 id="polygon3186" />
            </g>
            <g
               id="g3188">
              <polygon
                 style="fill:#3d3732"
                 points="202.128,38.835 187.001,42.458 187.001,122.876 202.128,121.258 "
                 id="polygon3190" />
            </g>
          </g>
          <g
             id="Lignes_BX1">
            <path
               style="fill:#008d4c"
               inkscape:connector-curvature="0"
               d="m 89.789,46.828 c -0.83,0.156 -1.832,0.451 -1.832,0.451 1.832,20.309 6.54,57.806 16.473,84.493 l 5.306,-0.547 C 98.204,101.496 91.67,66.249 89.789,46.828 z"
               id="path3193" />
            <path
               style="fill:#008d4c"
               inkscape:connector-curvature="0"
               d="m 87.275,47.479 -1.899,0.551 c 0.615,21.379 1.705,61.175 4.594,85.293 L 94.246,132.9 C 90.482,109.48 88.013,69.085 87.275,47.479 z"
               id="path3195" />
            <path
               style="fill:#0076b8"
               inkscape:connector-curvature="0"
               d="M 84.757,48.221 82.9,48.724 c -0.727,21.772 -3.108,62.432 -6.679,86.103 l 4.046,-0.471 c 2.852,-24.245 4.04,-64.471 4.49,-86.135 z"
               id="path3197" />
            <path
               style="fill:#0076b8"
               inkscape:connector-curvature="0"
               d="m 82.226,48.922 -1.78,0.478 c -1.803,19.93 -7.87,56.305 -17.938,86.875 l 4.512,-0.482 C 75.689,108.212 80.438,69.84 82.226,48.922 z"
               id="path3199" />
          </g>
        </g>
      </g>
      <g
         id="g3201" />
      <g
         id="g3203" />
      <g
         id="g3205" />
      <g
         id="g3207" />
      <g
         id="g3209" />
      <g
         id="g3211" />
    </g>
    <rect
       style="opacity:0.48155176;fill:none;stroke:#000000;stroke-width:1.98111534;stroke-miterlimit:4;stroke-opacity:1;stroke-dasharray:none"
       id="install"
       width="435.5188"
       height="253.08072"
       x="57.082558"
       y="114.83265"
       inkscape:export-xdpi="123.42857"
       inkscape:export-ydpi="123.42857" />
    <path
       style="fill:#4a65be;fill-opacity:1;stroke:#00005e;stroke-width:1;stroke-linecap:round;stroke-linejoin:miter;stroke-miterlimit:4;stroke-opacity:0.50222222;stroke-dasharray:none;stroke-dashoffset:8.87999871;filter:url(#filter3872)"
       d="m 226.21605,224.76941 57.08256,0 20,13.38974 -20,13.38973 -57.08256,0 z"
       id="rect3089"
       inkscape:connector-curvature="0"
       sodipodi:nodetypes="cccccc" />
    <text
       xml:space="preserve"
       style="font-size:22px;font-style:normal;font-variant:normal;font-weight:normal;font-stretch:normal;line-height:125%;letter-spacing:0px;word-spacing:0px;fill:#000000;fill-opacity:1;stroke:none;font-family:Sans;-inkscape-font-specification:'cursor.pcf'"
       x="144.4682"
       y="344.82037"
       id="text3876"
       sodipodi:linespacing="125%"><tspan
         sodipodi:role="line"
         id="tspan3878"
         x="144.4682"
         y="344.82037">drag and drop to install</tspan></text>
  </g>
</svg>
